<svg width="48" height="48" viewBox="0 0 48 48" fill="none" xmlns="http://www.w3.org/2000/svg">
<path d="M4 36.8248V17.6113C4 13.5442 8.59012 11.1717 11.908 13.524L23.9165 22.0374C26.5441 23.9002 26.7567 27.7227 24.3519 29.8654L12.3435 40.5656C9.11367 43.4435 4 41.1508 4 36.8248Z" fill="#FF4200"/>
<path d="M41.5774 11.4596V30.6556C41.5774 34.6704 37.0916 37.0545 33.7639 34.8084L21.7665 26.7101C19.0894 24.9031 18.7964 21.0724 21.1674 18.8792L33.1649 7.78157C36.3731 4.81399 41.5774 7.08938 41.5774 11.4596Z" fill="#FFC000"/>
<path d="M23.9165 22.0377C26.2137 23.6663 26.6641 26.7916 25.1343 28.9839L21.7661 26.7105C19.3705 25.0934 18.8857 21.8561 20.5093 19.6216L23.9165 22.0377Z" fill="#F02318"/>
</svg>
