<svg width="48" height="48" viewBox="0 0 48 48" fill="none" xmlns="http://www.w3.org/2000/svg">
<path d="M17.147 11.7433L23.0539 22.0258C23.4868 22.7793 24.5629 22.8097 25.0376 22.0818L28.0194 17.5098C28.2342 17.1804 28.6008 16.9818 28.994 16.9818H33.9538C34.8401 16.9818 35.4011 17.9332 34.972 18.7087L29.319 28.9276C28.89 29.7032 29.4509 30.6545 30.3372 30.6545H35.259C35.6728 30.6545 36.0556 30.4347 36.2641 30.0772L39.6544 24.2653C39.8677 23.8996 39.8656 23.447 39.649 23.0834L32.193 10.5681C31.9832 10.2158 31.6034 10 31.1933 10H18.156C17.2613 10 16.7013 10.9675 17.147 11.7433Z" fill="#F02318"/>
<path d="M30.853 35.3113L24.9461 25.0288C24.5132 24.2753 23.4371 24.2449 22.9624 24.9728L19.9806 29.5448C19.7658 29.8741 19.3992 30.0727 19.006 30.0727H14.0462C13.1599 30.0727 12.5989 29.1214 13.028 28.3458L18.681 18.1269C19.11 17.3514 18.5491 16.4 17.6628 16.4H12.741C12.3272 16.4 11.9444 16.6198 11.7359 16.9773L8.3456 22.7893C8.13232 23.1549 8.1344 23.6075 8.35104 23.9712L15.807 36.4865C16.0168 36.8388 16.3966 37.0546 16.8067 37.0546H29.844C30.7387 37.0546 31.2987 36.0871 30.853 35.3113Z" fill="#F02318"/>
</svg>
